<?xml version="1.0" standalone="no"?>
<!DOCTYPE svg PUBLIC "-//W3C//DTD SVG 20010904//EN"
 "http://www.w3.org/TR/2001/REC-SVG-20010904/DTD/svg10.dtd">
<svg version="1.0" xmlns="http://www.w3.org/2000/svg"
 width="317.000000pt" height="317.000000pt" viewBox="0 0 317.000000 317.000000"
 preserveAspectRatio="xMidYMid meet">
<metadata>
Created by potrace 1.11, written by Peter Selinger 2001-2013
</metadata>
<g transform="translate(0.000000,317.000000) scale(0.100000,-0.100000)"
fill="#000000" stroke="none">
<path d="M1493 3124 c-147 -163 -171 -407 -58 -599 36 -63 127 -140 208 -178
108 -51 216 -71 384 -71 79 -1 143 -2 143 -4 0 -1 -9 -20 -20 -42 -73 -143
-126 -362 -134 -554 l-3 -79 -51 -47 c-135 -123 -366 -239 -529 -265 l-43 -7
0 69 c0 138 -38 282 -102 391 -52 89 -161 191 -250 235 -261 129 -558 50 -732
-197 -39 -55 -86 -137 -86 -150 0 -3 24 12 53 34 220 167 453 183 660 46 62
-41 71 -59 15 -30 -111 58 -307 68 -428 22 -117 -44 -223 -126 -292 -226 -60
-87 -108 -218 -108 -296 l0 -40 67 73 c217 236 436 300 659 194 68 -32 76 -44
21 -31 -61 14 -212 3 -280 -21 -203 -71 -355 -248 -402 -468 -10 -44 -14 -213
-6 -213 4 0 15 17 25 37 30 63 121 185 178 239 115 109 226 154 358 145 23 -2
22 -3 -10 -15 -138 -52 -229 -124 -305 -242 -66 -100 -93 -187 -101 -324 l-6
-95 31 54 c129 227 370 380 605 383 217 4 374 -67 565 -252 87 -86 86 -84 62
-119 -51 -71 -103 -275 -70 -271 8 2 66 2 129 1 l115 -1 0 -102 0 -103 43 -3
c38 -3 42 -1 43 20 0 13 2 32 4 43 2 11 6 36 8 55 21 156 101 348 203 490 45
63 60 77 96 88 66 20 237 105 299 148 186 130 311 297 356 479 l16 66 56 -1
c31 -1 80 -1 110 -1 l53 1 -7 47 c-40 266 -213 555 -433 720 -42 32 -78 63
-79 68 -2 6 23 39 55 74 31 35 60 69 64 75 5 9 -19 12 -91 11 l-99 -1 37 65
c34 62 36 71 36 156 0 103 -20 156 -81 219 -58 60 -106 79 -259 101 -180 26
-297 49 -327 66 -10 5 -24 9 -31 9 -38 0 -250 124 -272 160 -10 17 -18 12 -62
-36z"/>
</g>
</svg>
